<svg width="44" height="44" viewBox="0 0 44 44" fill="none" xmlns="http://www.w3.org/2000/svg">
<rect width="44" height="44" rx="22" fill="#A3D3FF"/>
<path fill-rule="evenodd" clip-rule="evenodd" d="M20.7173 15.2617C21.5809 14.4538 22.7523 14 23.9737 14H26.3421C26.7054 14 27 14.2755 27 14.6154V17.5692C27 17.9091 26.7054 18.1846 26.3421 18.1846H23.9737C23.9388 18.1846 23.9053 18.1976 23.8806 18.2207C23.856 18.2437 23.8421 18.2751 23.8421 18.3077V19.9077H26.3421C26.5447 19.9077 26.736 19.995 26.8607 20.1444C26.9853 20.2937 27.0295 20.4885 26.9804 20.6723L26.1909 23.6262C26.1177 23.9001 25.8545 24.0923 25.5526 24.0923H23.8421V29.3846C23.8421 29.7245 23.5476 30 23.1842 30H20.0263C19.663 30 19.3684 29.7245 19.3684 29.3846V24.0923H17.6579C17.2945 24.0923 17 23.8168 17 23.4769V20.5231C17 20.1832 17.2945 19.9077 17.6579 19.9077H19.3684V18.3077C19.3684 17.1652 19.8536 16.0695 20.7173 15.2617ZM23.9737 15.2308C23.1013 15.2308 22.2646 15.5549 21.6477 16.132C21.0308 16.709 20.6842 17.4916 20.6842 18.3077V20.5231C20.6842 20.8629 20.3897 21.1385 20.0263 21.1385H18.3158V22.8615H20.0263C20.3897 22.8615 20.6842 23.1371 20.6842 23.4769V28.7692H22.5263V23.4769C22.5263 23.1371 22.8209 22.8615 23.1842 22.8615H25.039L25.4995 21.1385H23.1842C22.8209 21.1385 22.5263 20.8629 22.5263 20.5231V18.3077C22.5263 17.9486 22.6788 17.6043 22.9502 17.3504C23.2217 17.0965 23.5898 16.9538 23.9737 16.9538H25.6842V15.2308H23.9737Z" fill="white"/>
</svg>
