<svg width="44" height="44" viewBox="0 0 44 44" fill="none" xmlns="http://www.w3.org/2000/svg">
<rect width="44" height="44" rx="22" fill="#A3D3FF"/>
<path fill-rule="evenodd" clip-rule="evenodd" d="M16.1463 14C14.9609 14 14 14.9609 14 16.1463C14 17.3317 14.9609 18.2927 16.1463 18.2927C17.3317 18.2927 18.2927 17.3317 18.2927 16.1463C18.2927 14.9609 17.3317 14 16.1463 14ZM15.1707 16.1463C15.1707 15.6075 15.6075 15.1707 16.1463 15.1707C16.6852 15.1707 17.122 15.6075 17.122 16.1463C17.122 16.6852 16.6852 17.122 16.1463 17.122C15.6075 17.122 15.1707 16.6852 15.1707 16.1463Z" fill="white"/>
<path fill-rule="evenodd" clip-rule="evenodd" d="M14 19.2683C14 18.945 14.2621 18.6829 14.5854 18.6829H17.7073C18.0306 18.6829 18.2927 18.945 18.2927 19.2683V29.4146C18.2927 29.7379 18.0306 30 17.7073 30H14.5854C14.2621 30 14 29.7379 14 29.4146V19.2683ZM15.1707 19.8537V28.8293H17.122V19.8537H15.1707Z" fill="white"/>
<path fill-rule="evenodd" clip-rule="evenodd" d="M19.4634 19.2683C19.4634 18.945 19.7255 18.6829 20.0488 18.6829H23.1707C23.494 18.6829 23.7561 18.945 23.7561 19.2683V19.607L24.0958 19.4614C24.6799 19.2111 25.3045 19.0542 25.9362 18.9967C28.102 18.7998 30 20.5018 30 22.687V29.4146C30 29.7379 29.7379 30 29.4146 30H26.2927C25.9694 30 25.7073 29.7379 25.7073 29.4146V23.9512C25.7073 23.6925 25.6045 23.4443 25.4216 23.2614C25.2386 23.0784 24.9905 22.9756 24.7317 22.9756C24.473 22.9756 24.2248 23.0784 24.0418 23.2614C23.8589 23.4443 23.7561 23.6925 23.7561 23.9512V29.4146C23.7561 29.7379 23.494 30 23.1707 30H20.0488C19.7255 30 19.4634 29.7379 19.4634 29.4146V19.2683ZM20.6341 19.8537V28.8293H22.5854V23.9512C22.5854 23.382 22.8115 22.836 23.214 22.4335C23.6165 22.031 24.1625 21.8049 24.7317 21.8049C25.301 21.8049 25.8469 22.031 26.2494 22.4335C26.6519 22.836 26.878 23.382 26.878 23.9512V28.8293H28.8293V22.687C28.8293 21.2007 27.5329 20.0271 26.0422 20.1627C25.5317 20.2091 25.0271 20.3361 24.557 20.5375L23.4013 21.0328C23.2205 21.1103 23.0128 21.0918 22.8485 20.9835C22.6842 20.8751 22.5854 20.6915 22.5854 20.4948V19.8537H20.6341Z" fill="white"/>
</svg>
