<svg width="61" height="15" viewBox="0 0 61 15" fill="none" xmlns="http://www.w3.org/2000/svg">
<path d="M5.95969 3.26059C5.95969 3.89506 5.83943 4.43483 5.5989 4.8799C5.36026 5.32498 5.03451 5.66494 4.62163 5.89979C4.21064 6.13275 3.74852 6.24922 3.23526 6.24922C2.71822 6.24922 2.2542 6.1318 1.84322 5.89695C1.43223 5.6621 1.10742 5.32214 0.868786 4.87706C0.630149 4.43199 0.510831 3.89316 0.510831 3.26059C0.510831 2.62612 0.630149 2.08634 0.868786 1.64127C1.10742 1.19619 1.43223 0.857178 1.84322 0.624223C2.2542 0.389375 2.71822 0.27195 3.23526 0.27195C3.74852 0.27195 4.21064 0.389375 4.62163 0.624223C5.03451 0.857178 5.36026 1.19619 5.5989 1.64127C5.83943 2.08634 5.95969 2.62612 5.95969 3.26059ZM4.71254 3.26059C4.71254 2.8496 4.65098 2.50301 4.52788 2.22081C4.40666 1.93862 4.23526 1.7246 4.01367 1.57877C3.79208 1.43294 3.53261 1.36002 3.23526 1.36002C2.93791 1.36002 2.67844 1.43294 2.45685 1.57877C2.23526 1.7246 2.06291 1.93862 1.93981 2.22081C1.8186 2.50301 1.75799 2.8496 1.75799 3.26059C1.75799 3.67157 1.8186 4.01816 1.93981 4.30036C2.06291 4.58256 2.23526 4.79657 2.45685 4.9424C2.67844 5.08824 2.93791 5.16115 3.23526 5.16115C3.53261 5.16115 3.79208 5.08824 4.01367 4.9424C4.23526 4.79657 4.40666 4.58256 4.52788 4.30036C4.65098 4.01816 4.71254 3.67157 4.71254 3.26059ZM6.84819 7.80604V1.80604H8.04137V2.539H8.09535C8.14838 2.42157 8.22508 2.30225 8.32546 2.18104C8.42773 2.05794 8.56031 1.95566 8.72319 1.87422C8.88796 1.79089 9.09251 1.74922 9.33683 1.74922C9.65501 1.74922 9.94857 1.83256 10.2175 1.99922C10.4864 2.164 10.7014 2.41305 10.8624 2.74638C11.0234 3.07782 11.1039 3.49354 11.1039 3.99354C11.1039 4.48028 11.0253 4.89127 10.8681 5.2265C10.7128 5.55983 10.5007 5.81267 10.2317 5.98502C9.96467 6.15547 9.66542 6.2407 9.33398 6.2407C9.09914 6.2407 8.89933 6.20187 8.73455 6.12422C8.57167 6.04657 8.43815 5.94903 8.33398 5.83161C8.22982 5.71229 8.15027 5.59203 8.09535 5.47081H8.05842V7.80604H6.84819ZM8.03285 3.98786C8.03285 4.24733 8.06883 4.47365 8.1408 4.66684C8.21277 4.86002 8.31694 5.01059 8.4533 5.11854C8.58967 5.2246 8.75539 5.27763 8.95046 5.27763C9.14743 5.27763 9.3141 5.22365 9.45046 5.1157C9.58683 5.00585 9.69005 4.85434 9.76012 4.66115C9.83209 4.46608 9.86808 4.24165 9.86808 3.98786C9.86808 3.73597 9.83304 3.51437 9.76296 3.32309C9.69289 3.1318 9.58967 2.98218 9.4533 2.87422C9.31694 2.76627 9.14933 2.71229 8.95046 2.71229C8.75349 2.71229 8.58683 2.76437 8.45046 2.86854C8.31599 2.97271 8.21277 3.12044 8.1408 3.31172C8.06883 3.50301 8.03285 3.72839 8.03285 3.98786ZM13.8993 6.25491C13.4505 6.25491 13.0641 6.164 12.7402 5.98218C12.4183 5.79847 12.1702 5.539 11.9959 5.20377C11.8217 4.86665 11.7346 4.46797 11.7346 4.00775C11.7346 3.55888 11.8217 3.16494 11.9959 2.82593C12.1702 2.48691 12.4154 2.22271 12.7317 2.03331C13.0499 1.84392 13.423 1.74922 13.851 1.74922C14.1389 1.74922 14.4069 1.79562 14.655 1.88843C14.905 1.97934 15.1228 2.11665 15.3084 2.30036C15.4959 2.48407 15.6417 2.71513 15.7459 2.99354C15.8501 3.27006 15.9022 3.59392 15.9022 3.96513V4.29752H12.2175V3.54752H14.763C14.763 3.37328 14.7251 3.21892 14.6493 3.08445C14.5736 2.94998 14.4685 2.84487 14.334 2.76911C14.2014 2.69146 14.0471 2.65263 13.8709 2.65263C13.6872 2.65263 13.5243 2.69525 13.3823 2.78047C13.2421 2.86381 13.1323 2.9765 13.0527 3.11854C12.9732 3.25869 12.9325 3.41494 12.9306 3.58729V4.30036C12.9306 4.51627 12.9703 4.70282 13.0499 4.86002C13.1313 5.01722 13.2459 5.13843 13.3936 5.22365C13.5414 5.30888 13.7166 5.3515 13.9192 5.3515C14.0537 5.3515 14.1768 5.33256 14.2885 5.29468C14.4003 5.2568 14.4959 5.19998 14.5755 5.12422C14.655 5.04847 14.7156 4.95566 14.7573 4.84581L15.8766 4.91968C15.8198 5.18862 15.7033 5.42347 15.5272 5.62422C15.3529 5.82309 15.1275 5.97839 14.851 6.09013C14.5764 6.19998 14.2592 6.25491 13.8993 6.25491ZM17.9022 3.64695V6.16968H16.6919V1.80604H17.8453V2.57593H17.8965C17.9931 2.32214 18.155 2.12138 18.3823 1.97365C18.6096 1.82403 18.8851 1.74922 19.209 1.74922C19.512 1.74922 19.7762 1.81551 20.0016 1.94809C20.227 2.08066 20.4022 2.27006 20.5272 2.51627C20.6522 2.76059 20.7147 3.05225 20.7147 3.39127V6.16968H19.5044V3.60718C19.5063 3.34013 19.4382 3.1318 19.2999 2.98218C19.1616 2.83066 18.9713 2.7549 18.7289 2.7549C18.566 2.7549 18.4221 2.78994 18.2971 2.86002C18.1739 2.93009 18.0774 3.03237 18.0073 3.16684C17.9391 3.29941 17.9041 3.45945 17.9022 3.64695ZM2.56197 14.2549C2.115 14.2549 1.73053 14.1602 1.40856 13.9708C1.08848 13.7795 0.84227 13.5144 0.669922 13.1754C0.499467 12.8363 0.41424 12.4462 0.41424 12.0049C0.41424 11.5579 0.500414 11.1659 0.672763 10.8288C0.847005 10.4898 1.09416 10.2255 1.41424 10.0362C1.73432 9.84487 2.115 9.74922 2.55629 9.74922C2.93697 9.74922 3.2703 9.81835 3.55629 9.95661C3.84227 10.0949 4.0686 10.289 4.23526 10.539C4.40193 10.789 4.49379 11.0826 4.51083 11.4197H3.36879C3.33659 11.2019 3.25136 11.0267 3.1131 10.8941C2.97674 10.7596 2.79776 10.6924 2.57617 10.6924C2.38867 10.6924 2.22485 10.7435 2.08469 10.8458C1.94644 10.9462 1.83848 11.093 1.76083 11.2862C1.68318 11.4793 1.64435 11.7132 1.64435 11.9879C1.64435 12.2663 1.68223 12.503 1.75799 12.6981C1.83564 12.8932 1.94454 13.0418 2.08469 13.1441C2.22485 13.2464 2.38867 13.2975 2.57617 13.2975C2.71443 13.2975 2.83848 13.2691 2.94833 13.2123C3.06007 13.1555 3.15193 13.0731 3.2239 12.9651C3.29776 12.8553 3.34606 12.7237 3.36879 12.5702H4.51083C4.49189 12.9036 4.40098 13.1971 4.2381 13.4509C4.07712 13.7028 3.85458 13.8998 3.57049 14.0418C3.2864 14.1839 2.95023 14.2549 2.56197 14.2549ZM7.25728 14.2549C6.81599 14.2549 6.43436 14.1612 6.11239 13.9737C5.79232 13.7843 5.54516 13.521 5.37092 13.1839C5.19667 12.8449 5.10955 12.4519 5.10955 12.0049C5.10955 11.5541 5.19667 11.1602 5.37092 10.8231C5.54516 10.4841 5.79232 10.2208 6.11239 10.0333C6.43436 9.84392 6.81599 9.74922 7.25728 9.74922C7.69857 9.74922 8.07925 9.84392 8.39933 10.0333C8.7213 10.2208 8.9694 10.4841 9.14364 10.8231C9.31789 11.1602 9.40501 11.5541 9.40501 12.0049C9.40501 12.4519 9.31789 12.8449 9.14364 13.1839C8.9694 13.521 8.7213 13.7843 8.39933 13.9737C8.07925 14.1612 7.69857 14.2549 7.25728 14.2549ZM7.26296 13.3174C7.46372 13.3174 7.63133 13.2606 7.7658 13.147C7.90027 13.0314 8.0016 12.8742 8.06978 12.6754C8.13986 12.4765 8.17489 12.2502 8.17489 11.9964C8.17489 11.7426 8.13986 11.5163 8.06978 11.3174C8.0016 11.1185 7.90027 10.9613 7.7658 10.8458C7.63133 10.7303 7.46372 10.6725 7.26296 10.6725C7.06031 10.6725 6.88986 10.7303 6.7516 10.8458C6.61523 10.9613 6.51201 11.1185 6.44194 11.3174C6.37376 11.5163 6.33967 11.7426 6.33967 11.9964C6.33967 12.2502 6.37376 12.4765 6.44194 12.6754C6.51201 12.8742 6.61523 13.0314 6.7516 13.147C6.88986 13.2606 7.06031 13.3174 7.26296 13.3174ZM10.1919 14.1697V9.80604H11.3453V10.5759H11.3965C11.4874 10.3202 11.6389 10.1185 11.851 9.97081C12.0632 9.82309 12.3169 9.74922 12.6124 9.74922C12.9116 9.74922 13.1664 9.82403 13.3766 9.97365C13.5868 10.1214 13.727 10.3221 13.7971 10.5759H13.8425C13.9315 10.3259 14.0925 10.1261 14.3255 9.9765C14.5603 9.82498 14.8378 9.74922 15.1578 9.74922C15.565 9.74922 15.8955 9.87896 16.1493 10.1384C16.405 10.396 16.5328 10.7615 16.5328 11.235V14.1697H15.3255V11.4737C15.3255 11.2312 15.2611 11.0494 15.1323 10.9282C15.0035 10.807 14.8425 10.7464 14.6493 10.7464C14.4296 10.7464 14.2582 10.8165 14.1351 10.9566C14.012 11.0949 13.9505 11.2776 13.9505 11.5049V14.1697H12.7772V11.4481C12.7772 11.2341 12.7156 11.0636 12.5925 10.9367C12.4713 10.8098 12.3113 10.7464 12.1124 10.7464C11.9779 10.7464 11.8567 10.7805 11.7488 10.8487C11.6427 10.9149 11.5584 11.0087 11.4959 11.1299C11.4334 11.2492 11.4022 11.3894 11.4022 11.5504V14.1697H10.1919ZM17.4888 14.1697V9.80604H18.6422V10.5759H18.6934C18.7843 10.3202 18.9358 10.1185 19.1479 9.97081C19.36 9.82309 19.6138 9.74922 19.9093 9.74922C20.2085 9.74922 20.4632 9.82403 20.6735 9.97365C20.8837 10.1214 21.0239 10.3221 21.0939 10.5759H21.1394C21.2284 10.3259 21.3894 10.1261 21.6223 9.9765C21.8572 9.82498 22.1346 9.74922 22.4547 9.74922C22.8619 9.74922 23.1924 9.87896 23.4462 10.1384C23.7019 10.396 23.8297 10.7615 23.8297 11.235V14.1697H22.6223V11.4737C22.6223 11.2312 22.5579 11.0494 22.4292 10.9282C22.3004 10.807 22.1394 10.7464 21.9462 10.7464C21.7265 10.7464 21.5551 10.8165 21.432 10.9566C21.3089 11.0949 21.2473 11.2776 21.2473 11.5049V14.1697H20.074V11.4481C20.074 11.2341 20.0125 11.0636 19.8894 10.9367C19.7682 10.8098 19.6081 10.7464 19.4093 10.7464C19.2748 10.7464 19.1536 10.7805 19.0456 10.8487C18.9396 10.9149 18.8553 11.0087 18.7928 11.1299C18.7303 11.2492 18.699 11.3894 18.699 11.5504V14.1697H17.4888ZM27.584 12.3117V9.80604H28.7942V14.1697H27.6323V13.3771H27.5868C27.4883 13.6327 27.3245 13.8382 27.0953 13.9935C26.8681 14.1488 26.5906 14.2265 26.263 14.2265C25.9713 14.2265 25.7147 14.1602 25.4931 14.0276C25.2715 13.8951 25.0982 13.7066 24.9732 13.4623C24.8501 13.218 24.7876 12.9254 24.7857 12.5845V9.80604H25.9959V12.3685C25.9978 12.6261 26.0669 12.8297 26.2033 12.9793C26.3397 13.129 26.5224 13.2038 26.7516 13.2038C26.8974 13.2038 27.0338 13.1706 27.1607 13.1043C27.2876 13.0362 27.3899 12.9358 27.4675 12.8032C27.5471 12.6706 27.5859 12.5068 27.584 12.3117ZM30.9725 11.647V14.1697H29.7623V9.80604H30.9157V10.5759H30.9668C31.0634 10.3221 31.2253 10.1214 31.4526 9.97365C31.6799 9.82403 31.9554 9.74922 32.2793 9.74922C32.5823 9.74922 32.8465 9.81551 33.0719 9.94809C33.2973 10.0807 33.4725 10.2701 33.5975 10.5163C33.7225 10.7606 33.785 11.0523 33.785 11.3913V14.1697H32.5748V11.6072C32.5766 11.3401 32.5085 11.1318 32.3702 10.9822C32.2319 10.8307 32.0416 10.7549 31.7992 10.7549C31.6363 10.7549 31.4924 10.7899 31.3674 10.86C31.2443 10.9301 31.1477 11.0324 31.0776 11.1668C31.0094 11.2994 30.9744 11.4595 30.9725 11.647ZM34.7388 14.1697V9.80604H35.949V14.1697H34.7388ZM35.3468 9.24354C35.1668 9.24354 35.0125 9.18388 34.8837 9.06456C34.7568 8.94335 34.6934 8.79847 34.6934 8.6299C34.6934 8.46324 34.7568 8.32025 34.8837 8.20093C35.0125 8.07972 35.1668 8.01911 35.3468 8.01911C35.5267 8.01911 35.6801 8.07972 35.807 8.20093C35.9358 8.32025 36.0002 8.46324 36.0002 8.6299C36.0002 8.79847 35.9358 8.94335 35.807 9.06456C35.6801 9.18388 35.5267 9.24354 35.3468 9.24354ZM38.8901 14.2549C38.4431 14.2549 38.0587 14.1602 37.7367 13.9708C37.4166 13.7795 37.1704 13.5144 36.998 13.1754C36.8276 12.8363 36.7424 12.4462 36.7424 12.0049C36.7424 11.5579 36.8285 11.1659 37.0009 10.8288C37.1751 10.4898 37.4223 10.2255 37.7424 10.0362C38.0624 9.84487 38.4431 9.74922 38.8844 9.74922C39.2651 9.74922 39.5984 9.81835 39.8844 9.95661C40.1704 10.0949 40.3967 10.289 40.5634 10.539C40.7301 10.789 40.8219 11.0826 40.839 11.4197H39.6969C39.6647 11.2019 39.5795 11.0267 39.4412 10.8941C39.3049 10.7596 39.1259 10.6924 38.9043 10.6924C38.7168 10.6924 38.553 10.7435 38.4128 10.8458C38.2746 10.9462 38.1666 11.093 38.089 11.2862C38.0113 11.4793 37.9725 11.7132 37.9725 11.9879C37.9725 12.2663 38.0104 12.503 38.0861 12.6981C38.1638 12.8932 38.2727 13.0418 38.4128 13.1441C38.553 13.2464 38.7168 13.2975 38.9043 13.2975C39.0426 13.2975 39.1666 13.2691 39.2765 13.2123C39.3882 13.1555 39.4801 13.0731 39.552 12.9651C39.6259 12.8553 39.6742 12.7237 39.6969 12.5702H40.839C40.82 12.9036 40.7291 13.1971 40.5662 13.4509C40.4052 13.7028 40.1827 13.8998 39.8986 14.0418C39.6145 14.1839 39.2784 14.2549 38.8901 14.2549ZM42.8581 14.2521C42.5797 14.2521 42.3316 14.2038 42.1138 14.1072C41.896 14.0087 41.7237 13.8638 41.5968 13.6725C41.4718 13.4793 41.4093 13.2388 41.4093 12.9509C41.4093 12.7085 41.4538 12.5049 41.5428 12.3401C41.6318 12.1754 41.753 12.0428 41.9064 11.9424C42.0598 11.842 42.2341 11.7663 42.4292 11.7151C42.6261 11.664 42.8326 11.628 43.0485 11.6072C43.3023 11.5807 43.5068 11.556 43.6621 11.5333C43.8174 11.5087 43.9301 11.4727 44.0002 11.4254C44.0703 11.378 44.1053 11.3079 44.1053 11.2151V11.1981C44.1053 11.0182 44.0485 10.879 43.9348 10.7805C43.8231 10.682 43.664 10.6327 43.4576 10.6327C43.2398 10.6327 43.0665 10.681 42.9377 10.7776C42.8089 10.8723 42.7237 10.9916 42.682 11.1356L41.5627 11.0447C41.6195 10.7795 41.7312 10.5504 41.8979 10.3572C42.0646 10.1621 42.2795 10.0125 42.5428 9.90831C42.8079 9.80225 43.1148 9.74922 43.4632 9.74922C43.7057 9.74922 43.9377 9.77763 44.1593 9.83445C44.3828 9.89127 44.5807 9.97934 44.753 10.0987C44.9273 10.218 45.0646 10.3714 45.165 10.5589C45.2653 10.7445 45.3155 10.967 45.3155 11.2265V14.1697H44.1678V13.5646H44.1337C44.0636 13.7009 43.9699 13.8212 43.8525 13.9254C43.735 14.0276 43.5939 14.1081 43.4292 14.1668C43.2644 14.2237 43.074 14.2521 42.8581 14.2521ZM43.2047 13.4168C43.3828 13.4168 43.54 13.3818 43.6763 13.3117C43.8127 13.2398 43.9197 13.1432 43.9973 13.022C44.075 12.9007 44.1138 12.7634 44.1138 12.61V12.147C44.0759 12.1716 44.0239 12.1943 43.9576 12.2151C43.8932 12.2341 43.8203 12.2521 43.7388 12.2691C43.6574 12.2843 43.5759 12.2985 43.4945 12.3117C43.4131 12.3231 43.3392 12.3335 43.2729 12.343C43.1309 12.3638 43.0068 12.397 42.9007 12.4424C42.7947 12.4879 42.7123 12.5494 42.6536 12.6271C42.5949 12.7028 42.5655 12.7975 42.5655 12.9112C42.5655 13.0759 42.6252 13.2019 42.7445 13.289C42.8657 13.3742 43.0191 13.4168 43.2047 13.4168ZM48.5755 9.80604V10.7151H45.9476V9.80604H48.5755ZM46.5442 8.76059H47.7544V12.8288C47.7544 12.9405 47.7715 13.0276 47.8056 13.0901C47.8397 13.1507 47.887 13.1934 47.9476 13.218C48.0101 13.2426 48.0821 13.2549 48.1635 13.2549C48.2203 13.2549 48.2772 13.2502 48.334 13.2407C48.3908 13.2293 48.4344 13.2208 48.4647 13.2151L48.655 14.1157C48.5944 14.1346 48.5092 14.1564 48.3993 14.181C48.2895 14.2076 48.156 14.2237 47.9988 14.2293C47.7071 14.2407 47.4514 14.2019 47.2317 14.1129C47.0139 14.0238 46.8444 13.8856 46.7232 13.6981C46.602 13.5106 46.5423 13.2738 46.5442 12.9879V8.76059ZM49.3638 14.1697V9.80604H50.574V14.1697H49.3638ZM49.9718 9.24354C49.7918 9.24354 49.6375 9.18388 49.5087 9.06456C49.3818 8.94335 49.3184 8.79847 49.3184 8.6299C49.3184 8.46324 49.3818 8.32025 49.5087 8.20093C49.6375 8.07972 49.7918 8.01911 49.9718 8.01911C50.1517 8.01911 50.3051 8.07972 50.432 8.20093C50.5608 8.32025 50.6252 8.46324 50.6252 8.6299C50.6252 8.79847 50.5608 8.94335 50.432 9.06456C50.3051 9.18388 50.1517 9.24354 49.9718 9.24354ZM53.5151 14.2549C53.0738 14.2549 52.6922 14.1612 52.3702 13.9737C52.0501 13.7843 51.803 13.521 51.6287 13.1839C51.4545 12.8449 51.3674 12.4519 51.3674 12.0049C51.3674 11.5541 51.4545 11.1602 51.6287 10.8231C51.803 10.4841 52.0501 10.2208 52.3702 10.0333C52.6922 9.84392 53.0738 9.74922 53.5151 9.74922C53.9564 9.74922 54.3371 9.84392 54.6571 10.0333C54.9791 10.2208 55.2272 10.4841 55.4015 10.8231C55.5757 11.1602 55.6628 11.5541 55.6628 12.0049C55.6628 12.4519 55.5757 12.8449 55.4015 13.1839C55.2272 13.521 54.9791 13.7843 54.6571 13.9737C54.3371 14.1612 53.9564 14.2549 53.5151 14.2549ZM53.5208 13.3174C53.7215 13.3174 53.8891 13.2606 54.0236 13.147C54.1581 13.0314 54.2594 12.8742 54.3276 12.6754C54.3977 12.4765 54.4327 12.2502 54.4327 11.9964C54.4327 11.7426 54.3977 11.5163 54.3276 11.3174C54.2594 11.1185 54.1581 10.9613 54.0236 10.8458C53.8891 10.7303 53.7215 10.6725 53.5208 10.6725C53.3181 10.6725 53.1477 10.7303 53.0094 10.8458C52.873 10.9613 52.7698 11.1185 52.6998 11.3174C52.6316 11.5163 52.5975 11.7426 52.5975 11.9964C52.5975 12.2502 52.6316 12.4765 52.6998 12.6754C52.7698 12.8742 52.873 13.0314 53.0094 13.147C53.1477 13.2606 53.3181 13.3174 53.5208 13.3174ZM57.66 11.647V14.1697H56.4498V9.80604H57.6032V10.5759H57.6543C57.7509 10.3221 57.9128 10.1214 58.1401 9.97365C58.3674 9.82403 58.6429 9.74922 58.9668 9.74922C59.2698 9.74922 59.534 9.81551 59.7594 9.94809C59.9848 10.0807 60.16 10.2701 60.285 10.5163C60.41 10.7606 60.4725 11.0523 60.4725 11.3913V14.1697H59.2623V11.6072C59.2641 11.3401 59.196 11.1318 59.0577 10.9822C58.9194 10.8307 58.7291 10.7549 58.4867 10.7549C58.3238 10.7549 58.1799 10.7899 58.0549 10.86C57.9318 10.9301 57.8352 11.0324 57.7651 11.1668C57.6969 11.2994 57.6619 11.4595 57.66 11.647Z" fill="url(#paint0_linear_217_603)"/>
<defs>
<linearGradient id="paint0_linear_217_603" x1="0.107422" y1="8.26059" x2="64.3753" y2="8.26059" gradientUnits="userSpaceOnUse">
<stop stop-color="#88BABD"/>
<stop offset="1" stop-color="#335EA0"/>
</linearGradient>
</defs>
</svg>
