<svg width="60" height="25" viewBox="0 0 60 25" fill="none" xmlns="http://www.w3.org/2000/svg">
<path d="M0 25V5.06524C0 4.96186 0.0838091 4.87805 0.187193 4.87805H2.34519C3.22104 4.87805 3.93105 5.58806 3.93105 6.46391V7.22837C3.93105 7.28788 3.97929 7.33613 4.03881 7.33613C4.08142 7.33613 4.1199 7.31099 4.13784 7.27234C4.31109 6.89913 4.55415 6.52024 4.86701 6.13567C5.20396 5.72281 5.64074 5.37983 6.17736 5.10671C6.72022 4.82724 7.39412 4.6875 8.19905 4.6875C9.24733 4.6875 10.2145 4.96697 11.1005 5.52591C11.9866 6.07851 12.6948 6.91374 13.2252 8.03163C13.7556 9.14317 14.0207 10.5373 14.0207 12.2142C14.0207 13.8465 13.7618 15.2248 13.2439 16.3491C12.7322 17.467 12.0334 18.3149 11.1473 18.8929C10.2675 19.4646 9.28165 19.7504 8.18969 19.7504C7.41596 19.7504 6.75766 19.6202 6.2148 19.3598C5.67818 19.0993 5.23828 18.7722 4.89509 18.3784C4.56419 17.9926 4.3087 17.6038 4.12863 17.2121C4.11646 17.1856 4.09011 17.1684 4.06098 17.1684C4.02023 17.1684 3.98721 17.2015 3.98721 17.2422V21.0128C3.98721 23.2149 2.20207 25 0 25ZM3.90297 12.1951C3.90297 13.0653 4.02153 13.8243 4.25864 14.4722C4.49575 15.12 4.83894 15.625 5.2882 15.987C5.73746 16.3427 6.28344 16.5206 6.92614 16.5206C7.57507 16.5206 8.12417 16.3396 8.57343 15.9775C9.0227 15.6091 9.36276 15.101 9.59363 14.4531C9.83075 13.7989 9.9493 13.0462 9.9493 12.1951C9.9493 11.3504 9.83387 10.6072 9.60299 9.9657C9.37212 9.32419 9.03206 8.82241 8.58279 8.46037C8.13353 8.09832 7.58131 7.9173 6.92614 7.9173C6.2772 7.9173 5.7281 8.09197 5.27884 8.44131C4.83582 8.79065 4.49575 9.28608 4.25864 9.92759C4.02153 10.5691 3.90297 11.3249 3.90297 12.1951Z" fill="url(#paint0_linear_217_602)"/>
<path d="M23.2306 19.798C21.7518 19.798 20.4789 19.4931 19.4119 18.8834C18.3511 18.2673 17.5337 17.3971 16.9597 16.2729C16.3856 15.1423 16.0986 13.8053 16.0986 12.2618C16.0986 10.7565 16.3856 9.43534 16.9597 8.2984C17.5337 7.16146 18.3418 6.27541 19.3838 5.64024C20.4321 5.00508 21.6613 4.6875 23.0715 4.6875C24.02 4.6875 24.9029 4.84311 25.7203 5.15434C26.5439 5.45922 27.2615 5.91972 27.873 6.53582C28.4908 7.15193 28.9712 7.92683 29.3144 8.86052C29.6576 9.78785 29.8292 10.874 29.8292 12.1189C29.8292 12.7345 29.3301 13.2336 28.7145 13.2336H18.9473C18.2528 13.2336 17.6897 12.6706 17.6897 11.976C17.6897 11.2814 18.2528 10.7184 18.9473 10.7184H26.076C26.076 10.134 25.9512 9.61636 25.7016 9.1654C25.452 8.71443 25.1057 8.36192 24.6627 8.10785C24.2259 7.84743 23.7173 7.71723 23.137 7.71723C22.5318 7.71723 21.9952 7.86014 21.5272 8.14596C21.0654 8.42543 20.7035 8.80335 20.4415 9.27972C20.1794 9.74974 20.0452 10.2738 20.039 10.8518V13.2431C20.039 13.9672 20.17 14.5929 20.4321 15.12C20.7004 15.6472 21.0779 16.0537 21.5646 16.3396C22.0513 16.6254 22.6285 16.7683 23.2962 16.7683C23.7392 16.7683 24.1448 16.7048 24.5129 16.5777C24.8811 16.4507 25.1962 16.2602 25.4582 16.0061C25.9348 15.5441 26.5112 15.1029 27.1734 15.1474L27.5091 15.1699C28.6909 15.2493 29.5519 16.4007 28.8528 17.3569C28.7713 17.4684 28.6849 17.5771 28.5937 17.6829C28.0197 18.3498 27.2771 18.8707 26.3661 19.2454C25.4613 19.6138 24.4162 19.798 23.2306 19.798Z" fill="url(#paint1_linear_217_602)"/>
<path d="M34.4248 0C35.5258 0 36.4184 0.892566 36.4184 1.9936V15.525C36.4184 17.7271 34.6332 19.5122 32.4312 19.5122V1.9936C32.4312 0.892565 33.3237 0 34.4248 0Z" fill="url(#paint2_linear_217_602)"/>
<path d="M41.606 0C42.707 0 43.5996 0.892566 43.5996 1.9936V15.525C43.5996 17.7271 41.8144 19.5122 39.6124 19.5122V1.9936C39.6124 0.892565 40.5049 0 41.606 0Z" fill="url(#paint3_linear_217_602)"/>
<path d="M56.0128 13.2812V6.87165C56.0128 5.77062 56.9054 4.87805 58.0064 4.87805C59.1074 4.87805 60 5.77062 60 6.87165V15.6841C60 17.7983 58.2861 19.5122 56.1719 19.5122V16.9426C56.1719 16.8937 56.1323 16.854 56.0833 16.854C56.0465 16.854 56.0136 16.8769 56.0001 16.9112C55.6735 17.7422 55.1411 18.4123 54.4029 18.9215C53.6542 19.4423 52.74 19.7027 51.6606 19.7027C50.6996 19.7027 49.8541 19.4804 49.1241 19.0358C48.394 18.5912 47.8231 17.9592 47.4113 17.1399C47.0057 16.3205 46.7998 15.3392 46.7935 14.1959V6.87165C46.7935 5.77062 47.6861 4.87805 48.7871 4.87805C49.8882 4.87805 50.7807 5.77062 50.7807 6.87165V13.4718C50.787 14.3356 51.0147 15.0184 51.464 15.5202C51.9133 16.022 52.5154 16.2729 53.2704 16.2729C53.7509 16.2729 54.2001 16.1617 54.6182 15.9394C55.0363 15.7107 55.3732 15.3741 55.629 14.9295C55.8911 14.4849 56.019 13.9355 56.0128 13.2812Z" fill="url(#paint4_linear_217_602)"/>
<defs>
<linearGradient id="paint0_linear_217_602" x1="2.74164" y1="19.3729" x2="57.9962" y2="6.90918" gradientUnits="userSpaceOnUse">
<stop stop-color="#335EA0"/>
<stop offset="1" stop-color="#88BABD"/>
</linearGradient>
<linearGradient id="paint1_linear_217_602" x1="2.74164" y1="19.3729" x2="57.9962" y2="6.90918" gradientUnits="userSpaceOnUse">
<stop stop-color="#335EA0"/>
<stop offset="1" stop-color="#88BABD"/>
</linearGradient>
<linearGradient id="paint2_linear_217_602" x1="2.74164" y1="19.3729" x2="57.9962" y2="6.90918" gradientUnits="userSpaceOnUse">
<stop stop-color="#335EA0"/>
<stop offset="1" stop-color="#88BABD"/>
</linearGradient>
<linearGradient id="paint3_linear_217_602" x1="2.74164" y1="19.3729" x2="57.9962" y2="6.90918" gradientUnits="userSpaceOnUse">
<stop stop-color="#335EA0"/>
<stop offset="1" stop-color="#88BABD"/>
</linearGradient>
<linearGradient id="paint4_linear_217_602" x1="2.74164" y1="19.3729" x2="57.9962" y2="6.90918" gradientUnits="userSpaceOnUse">
<stop stop-color="#335EA0"/>
<stop offset="1" stop-color="#88BABD"/>
</linearGradient>
</defs>
</svg>
