<svg width="44" height="44" viewBox="0 0 44 44" fill="none" xmlns="http://www.w3.org/2000/svg">
<rect width="44" height="44" rx="22" fill="#A3D3FF"/>
<path fill-rule="evenodd" clip-rule="evenodd" d="M16.876 23.7971C16.9147 23.8112 16.9538 23.8212 16.9929 23.8274C17.0355 23.9355 17.0905 24.0754 17.1547 24.239C17.3114 24.6384 17.5225 25.1784 17.7404 25.7418C18.1848 26.8908 18.6331 28.0751 18.7321 28.4142C18.8546 28.8333 18.9842 29.1182 19.1256 29.3127C19.1987 29.4133 19.2833 29.5011 19.3822 29.5676C19.4321 29.6011 19.4847 29.6286 19.5396 29.649C19.542 29.6499 19.5444 29.6508 19.5469 29.6517C19.83 29.7672 20.0882 29.719 20.2498 29.6602C20.3363 29.6288 20.4063 29.5907 20.4559 29.5599C20.4811 29.5442 20.5025 29.5296 20.5195 29.5172L20.5236 29.5142L23.0243 27.8291L25.9128 30.2221C25.9554 30.2574 26.0019 30.287 26.0511 30.3102C26.3981 30.4739 26.7342 30.531 27.0503 30.4843C27.3658 30.4377 27.6164 30.2944 27.8029 30.1332C27.9855 29.9753 28.1093 29.7985 28.1864 29.6671C28.2258 29.6 28.2554 29.5406 28.2762 29.4951C28.2867 29.4723 28.2951 29.4526 28.3016 29.4368L28.31 29.4159L28.3131 29.4078L28.3144 29.4043L28.315 29.4027L28.3156 29.4012C28.3308 29.3602 28.3424 29.3177 28.3504 29.2744L30.9873 14.9081C30.9958 14.8622 31 14.8155 31 14.7686C31 14.3479 30.8533 13.9479 30.5084 13.7051C30.2136 13.4976 29.8851 13.4887 29.6776 13.5057C29.4537 13.5241 29.2469 13.5838 29.1081 13.6315C29.0359 13.6564 28.9754 13.6803 28.9317 13.6986C28.9098 13.7078 28.8918 13.7157 28.8784 13.7217L28.8683 13.7263L14.0797 19.9952L14.0778 19.9959C14.0684 19.9996 14.0563 20.0045 14.0419 20.0106C14.0133 20.0226 13.9749 20.0396 13.9301 20.0615C13.8427 20.1043 13.7201 20.1712 13.5942 20.2643C13.3932 20.4131 12.9309 20.8205 13.0087 21.4929C13.0708 22.0294 13.411 22.3589 13.6182 22.5173C13.7319 22.6043 13.84 22.6665 13.9188 22.707C13.9553 22.7258 14.0311 22.7591 14.064 22.7735L14.0723 22.7772L16.876 23.7971ZM29.3859 15.0469L29.3838 15.0479C29.3765 15.0513 29.369 15.0546 29.3616 15.0578L14.555 21.3343C14.5473 21.3376 14.5395 21.3407 14.5316 21.3437L14.5234 21.347C14.5139 21.351 14.498 21.358 14.478 21.3678C14.4666 21.3734 14.4548 21.3794 14.4427 21.3859C14.4593 21.396 14.4752 21.4048 14.4893 21.4121C14.5028 21.419 14.5132 21.4238 14.5188 21.4263L17.2995 22.4379C17.3504 22.4564 17.3978 22.4809 17.4414 22.5105L26.6229 16.7025L26.6315 16.697C26.6382 16.6928 26.647 16.6873 26.6575 16.6808C26.6784 16.6681 26.7071 16.6511 26.7413 16.6323C26.805 16.5973 26.907 16.5452 27.0218 16.5069C27.1018 16.4802 27.3376 16.4049 27.5925 16.4933C27.7498 16.5478 27.9127 16.665 28.0186 16.8636C28.0713 16.9623 28.0993 17.0614 28.1129 17.1521C28.149 17.2951 28.1433 17.4362 28.115 17.558C28.0542 17.8205 27.8835 18.0252 27.7282 18.1818C27.5952 18.3161 25.8739 20.1096 24.1758 21.8802C23.329 22.7631 22.4908 23.6373 21.8643 24.2908L21.4528 24.7201L26.6484 29.0244C26.7676 29.0705 26.838 29.0681 26.8706 29.0633C26.9095 29.0576 26.9412 29.0414 26.9737 29.0133C27.01 28.982 27.0418 28.9396 27.0655 28.8991L27.0665 28.8975L29.624 14.9638C29.586 14.9737 29.5477 14.9854 29.5107 14.9982C29.4688 15.0126 29.4342 15.0263 29.4113 15.0359C29.4 15.0406 29.3918 15.0442 29.3874 15.0462L29.3859 15.0469ZM21.8992 26.897L20.8626 26.0383L20.6115 27.7648L21.8992 26.897ZM19.9117 24.3343L20.9425 23.2589C21.5691 22.6054 22.4073 21.7311 23.2542 20.8481L24.1147 19.951L18.3457 23.6003L18.3766 23.6792C18.5339 24.0799 18.7459 24.6224 18.965 25.1887C19.1288 25.6123 19.3001 26.0582 19.4561 26.4711L19.7065 24.7496C19.7307 24.5837 19.8057 24.44 19.9117 24.3343Z" fill="white"/>
</svg>
